<svg xmlns="http://www.w3.org/2000/svg" width="100" height="100" id="tc"><path d="M23 9.3h-7.3c-.3 0-.5-.2-.5-.5V5.2c0-.3.2-.5.5-.5H23c.3 0 .5.2.5.5v3.7c0 .2-.2.4-.5.4zm-6.8-1h6.3V5.7h-6.3v2.6zM8.3 19.3H4.7c-.3 0-.5-.2-.5-.5V9.3H1c-.3 0-.5-.2-.5-.5V5.2c0-.3.2-.5.5-.5h11c.3 0 .5.2.5.5v3.7c0 .3-.2.5-.5.5H8.8v9.5c0 .2-.2.4-.5.4zm-3.1-1h2.7V8.8c0-.3.2-.5.5-.5h3.2V5.7h-10v2.7h3.2c.3 0 .5.2.5.5v9.4z"></path><path d="M23 19.3H12c-.3 0-.5-.2-.5-.5v-10c0-.3.2-.5.5-.5h3.7c.3 0 .5.2.5.5v5.8H23c.3 0 .5.2.5.5v3.7c0 .3-.2.5-.5.5zm-10.5-1h10v-2.7h-6.8c-.3 0-.5-.2-.5-.5V9.3h-2.7v9z"></path></svg>